<svg width="445" height="62" viewBox="0 0 445 62" fill="none" xmlns="http://www.w3.org/2000/svg">
<path d="M195.887 0.510986V51.4211H186.271V0.510986H195.887ZM226.447 0.510986L206.027 25.3367L194.349 37.8194L192.635 28.4836L200.747 17.9589L214.664 0.510986H226.447ZM215.748 51.4211L199.908 27.5745L206.796 21.3506L227.181 51.4211H215.748Z" fill="url(#paint0_linear_578_229)"/>
<path d="M228.335 32.8893V32.155C228.335 29.381 228.732 26.8285 229.524 24.4975C230.317 22.1431 231.471 20.1035 232.986 18.3785C234.501 16.6535 236.354 15.3132 238.545 14.3574C240.736 13.3784 243.231 12.8889 246.028 12.8889C248.872 12.8889 251.389 13.3784 253.581 14.3574C255.795 15.3132 257.66 16.6535 259.175 18.3785C260.69 20.1035 261.844 22.1431 262.637 24.4975C263.429 26.8285 263.826 29.381 263.826 32.155V32.8893C263.826 35.6399 263.429 38.1924 262.637 40.5468C261.844 42.8778 260.69 44.9175 259.175 46.6658C257.66 48.3907 255.807 49.7311 253.616 50.6868C251.424 51.6426 248.918 52.1204 246.098 52.1204C243.301 52.1204 240.795 51.6426 238.58 50.6868C236.366 49.7311 234.501 48.3907 232.986 46.6658C231.471 44.9175 230.317 42.8778 229.524 40.5468C228.732 38.1924 228.335 35.6399 228.335 32.8893ZM237.566 32.155V32.8893C237.566 34.5443 237.729 36.0945 238.056 37.5397C238.382 38.985 238.883 40.2554 239.559 41.351C240.235 42.4466 241.109 43.3091 242.182 43.9384C243.277 44.5445 244.583 44.8476 246.098 44.8476C247.59 44.8476 248.872 44.5445 249.944 43.9384C251.016 43.3091 251.891 42.4466 252.567 41.351C253.266 40.2554 253.779 38.985 254.105 37.5397C254.431 36.0945 254.595 34.5443 254.595 32.8893V32.155C254.595 30.5233 254.431 28.9964 254.105 27.5745C253.779 26.1292 253.266 24.8588 252.567 23.7632C251.891 22.6443 251.005 21.7702 249.909 21.1408C248.837 20.4881 247.543 20.1617 246.028 20.1617C244.536 20.1617 243.254 20.4881 242.182 21.1408C241.109 21.7702 240.235 22.6443 239.559 23.7632C238.883 24.8588 238.382 26.1292 238.056 27.5745C237.729 28.9964 237.566 30.5233 237.566 32.155Z" fill="url(#paint1_linear_578_229)"/>
<path d="M279.595 21.6653V51.4211H270.364V13.5882H279.036L279.595 21.6653ZM278.126 31.141H275.399C275.422 28.3903 275.795 25.8961 276.518 23.6583C277.241 21.4205 278.255 19.4974 279.56 17.889C280.889 16.2805 282.462 15.0451 284.28 14.1826C286.099 13.3201 288.127 12.8889 290.365 12.8889C292.183 12.8889 293.826 13.1453 295.295 13.6581C296.763 14.1709 298.022 14.9868 299.071 16.1057C300.143 17.2246 300.959 18.6932 301.519 20.5114C302.101 22.3063 302.393 24.5208 302.393 27.1549V51.4211H293.092V27.085C293.092 25.36 292.835 23.9963 292.323 22.994C291.833 21.9916 291.11 21.2806 290.155 20.861C289.222 20.4415 288.068 20.2317 286.693 20.2317C285.271 20.2317 284.024 20.523 282.952 21.1058C281.903 21.6653 281.017 22.4462 280.294 23.4485C279.595 24.4509 279.059 25.6047 278.686 26.9101C278.313 28.2155 278.126 29.6258 278.126 31.141Z" fill="url(#paint2_linear_578_229)"/>
<path d="M319.596 21.6653V51.4211H310.365V13.5882H319.036L319.596 21.6653ZM318.127 31.141H315.4C315.423 28.3903 315.796 25.8961 316.519 23.6583C317.242 21.4205 318.256 19.4974 319.561 17.889C320.89 16.2805 322.463 15.0451 324.281 14.1826C326.099 13.3201 328.128 12.8889 330.365 12.8889C332.184 12.8889 333.827 13.1453 335.295 13.6581C336.764 14.1709 338.023 14.9868 339.072 16.1057C340.144 17.2246 340.96 18.6932 341.519 20.5114C342.102 22.3063 342.394 24.5208 342.394 27.1549V51.4211H333.093V27.085C333.093 25.36 332.836 23.9963 332.323 22.994C331.834 21.9916 331.111 21.2806 330.156 20.861C329.223 20.4415 328.069 20.2317 326.694 20.2317C325.272 20.2317 324.025 20.523 322.953 21.1058C321.904 21.6653 321.018 22.4462 320.295 23.4485C319.596 24.4509 319.06 25.6047 318.687 26.9101C318.314 28.2155 318.127 29.6258 318.127 31.141Z" fill="url(#paint3_linear_578_229)"/>
<path d="M367.534 52.1204C364.667 52.1204 362.091 51.6542 359.806 50.7218C357.522 49.7894 355.576 48.4956 353.967 46.8406C352.382 45.1622 351.158 43.2158 350.296 41.0013C349.457 38.7635 349.037 36.3625 349.037 33.7984V32.3997C349.037 29.4859 349.457 26.8402 350.296 24.4625C351.135 22.0615 352.324 19.9986 353.862 18.2736C355.401 16.5486 357.242 15.2199 359.387 14.2875C361.531 13.3551 363.897 12.8889 366.485 12.8889C369.166 12.8889 371.532 13.3434 373.583 14.2525C375.634 15.1383 377.348 16.3971 378.723 18.0288C380.098 19.6606 381.136 21.6186 381.835 23.9031C382.534 26.1642 382.884 28.6701 382.884 31.4207V35.3019H353.233V28.9381H373.793V28.2388C373.746 26.7703 373.466 25.4299 372.954 24.2178C372.441 22.9823 371.648 22.0033 370.576 21.2806C369.504 20.5347 368.117 20.1617 366.415 20.1617C365.04 20.1617 363.839 20.4648 362.814 21.0708C361.811 21.6536 360.972 22.4928 360.296 23.5884C359.643 24.6607 359.154 25.9427 358.827 27.4346C358.501 28.9265 358.338 30.5815 358.338 32.3997V33.7984C358.338 35.3835 358.548 36.8521 358.967 38.2041C359.41 39.5561 360.051 40.7332 360.89 41.7356C361.753 42.7146 362.779 43.4839 363.967 44.0433C365.18 44.5795 366.555 44.8476 368.093 44.8476C370.028 44.8476 371.776 44.4746 373.338 43.7286C374.923 42.9594 376.299 41.8288 377.464 40.337L382.115 45.1622C381.322 46.3278 380.25 47.4467 378.898 48.519C377.569 49.5912 375.961 50.4654 374.072 51.1414C372.184 51.7941 370.005 52.1204 367.534 52.1204Z" fill="url(#paint4_linear_578_229)"/>
<path d="M404.598 44.8476C405.903 44.8476 407.069 44.5911 408.094 44.0783C409.12 43.5655 409.936 42.8428 410.542 41.9104C411.171 40.978 411.509 39.8941 411.556 38.6586H420.262C420.216 41.2228 419.493 43.5189 418.094 45.5469C416.696 47.5749 414.831 49.1833 412.5 50.3721C410.192 51.5377 407.605 52.1204 404.737 52.1204C401.824 52.1204 399.283 51.6309 397.115 50.6519C394.947 49.6728 393.14 48.3092 391.695 46.5609C390.273 44.8126 389.201 42.7846 388.478 40.4768C387.779 38.1691 387.429 35.6982 387.429 33.0641V31.9452C387.429 29.3111 387.779 26.8402 388.478 24.5325C389.201 22.2247 390.273 20.1967 391.695 18.4484C393.14 16.7001 394.947 15.3365 397.115 14.3574C399.283 13.3784 401.812 12.8889 404.702 12.8889C407.756 12.8889 410.437 13.4833 412.745 14.6721C415.076 15.8609 416.894 17.5393 418.199 19.7072C419.528 21.8751 420.216 24.4276 420.262 27.3647H411.556C411.509 26.0127 411.206 24.8005 410.647 23.7282C410.087 22.656 409.295 21.7935 408.269 21.1408C407.243 20.4881 405.996 20.1617 404.528 20.1617C402.966 20.1617 401.66 20.4881 400.611 21.1408C399.586 21.7935 398.782 22.6909 398.199 23.8331C397.639 24.952 397.243 26.2108 397.01 27.6094C396.8 28.9848 396.695 30.43 396.695 31.9452V33.0641C396.695 34.6026 396.8 36.0711 397.01 37.4698C397.243 38.8684 397.639 40.1272 398.199 41.2461C398.782 42.3417 399.586 43.2158 400.611 43.8685C401.66 44.5212 402.989 44.8476 404.598 44.8476Z" fill="url(#paint5_linear_578_229)"/>
<path d="M444.319 13.5882V20.2317H422.64V13.5882H444.319ZM428.444 4.28729H437.71V40.5118C437.71 41.6307 437.862 42.4932 438.165 43.0993C438.468 43.7053 438.922 44.1133 439.528 44.3231C440.134 44.5329 440.857 44.6378 441.696 44.6378C442.302 44.6378 442.862 44.6028 443.375 44.5329C443.887 44.4629 444.319 44.393 444.668 44.3231L444.703 51.2463C443.934 51.5027 443.06 51.7125 442.081 51.8757C441.125 52.0388 440.041 52.1204 438.829 52.1204C436.754 52.1204 434.936 51.7708 433.374 51.0715C431.813 50.3488 430.6 49.195 429.738 47.6098C428.875 46.0014 428.444 43.8802 428.444 41.2461V4.28729Z" fill="url(#paint6_linear_578_229)"/>
<path fill-rule="evenodd" clip-rule="evenodd" d="M137.214 40.4846H150.72V19.5428H137.214V40.4846ZM150.646 11.3156H161.018V50.2075C161.018 56.6396 160.346 57.7615 158.63 59.4817C157.287 60.9027 155.123 61.5759 151.393 61.5759H136.246L131.545 56.3404V54.1715H150.646V48.8612H137.589C133.635 48.8612 131.62 48.1133 129.978 46.4679C127.815 44.2241 126.919 39.3626 126.919 30.1632C126.919 20.9638 127.964 15.8779 130.202 13.5594C131.918 11.9139 134.008 11.2408 137.738 11.2408L145.498 11.3156L150.646 16.0275V11.3156V11.3156ZM28.2787 0.994141H40.5153L22.9065 23.4318L41.2615 48.7863H28.2787L14.3259 28.8916H11.0429V48.7863H0V0.994141H11.0429V19.5426H14.3259L28.2787 0.994141ZM108.861 23.1328V23.1328V19.6923H105.131C105.056 19.6923 105.056 19.6923 104.982 19.6923H102.072C101.997 19.6923 101.997 19.6923 101.922 19.6923H96.1771V23.1328V23.1328V48.6368H85.8804V11.3156H92.6702V11.3156H96.1771V11.9887V16.0275L101.325 11.3156H104.31C104.758 11.2408 105.28 11.2408 105.802 11.2408H110.279C113.413 11.2408 115.427 11.9139 116.845 13.335C118.412 14.8308 119.009 16.7754 119.009 22.31V48.6368H108.712V23.5815C108.861 23.4319 108.861 23.2823 108.861 23.1328ZM54.6172 40.4084H68.1223V19.4666H54.6172V40.4084ZM55.0642 48.6368C51.3335 48.6368 49.3189 48.0385 47.752 46.3183C45.3644 43.8502 44.3944 40.4845 44.3944 29.9388C44.3944 19.3184 45.3644 16.0275 47.752 13.4846C49.3189 11.8392 51.3335 11.2408 55.0642 11.2408H67.5993C71.33 11.2408 73.3446 11.8392 74.9115 13.4846C77.2991 16.0275 78.2691 19.3184 78.2691 29.9388C78.2691 40.5593 77.2991 43.8502 74.9115 46.3183C73.2699 48.0385 71.33 48.6368 67.5993 48.6368H55.0642V48.6368Z" fill="#121518"/>
<defs>
<linearGradient id="paint0_linear_578_229" x1="186.271" y1="52.1204" x2="198.947" y2="-22.5162" gradientUnits="userSpaceOnUse">
<stop stop-color="#1155CB"/>
<stop offset="1" stop-color="#1DB57C"/>
</linearGradient>
<linearGradient id="paint1_linear_578_229" x1="186.271" y1="52.1204" x2="198.947" y2="-22.5162" gradientUnits="userSpaceOnUse">
<stop stop-color="#1155CB"/>
<stop offset="1" stop-color="#1DB57C"/>
</linearGradient>
<linearGradient id="paint2_linear_578_229" x1="186.271" y1="52.1204" x2="198.947" y2="-22.5162" gradientUnits="userSpaceOnUse">
<stop stop-color="#1155CB"/>
<stop offset="1" stop-color="#1DB57C"/>
</linearGradient>
<linearGradient id="paint3_linear_578_229" x1="186.271" y1="52.1204" x2="198.947" y2="-22.5162" gradientUnits="userSpaceOnUse">
<stop stop-color="#1155CB"/>
<stop offset="1" stop-color="#1DB57C"/>
</linearGradient>
<linearGradient id="paint4_linear_578_229" x1="186.271" y1="52.1204" x2="198.947" y2="-22.5162" gradientUnits="userSpaceOnUse">
<stop stop-color="#1155CB"/>
<stop offset="1" stop-color="#1DB57C"/>
</linearGradient>
<linearGradient id="paint5_linear_578_229" x1="186.271" y1="52.1204" x2="198.947" y2="-22.5162" gradientUnits="userSpaceOnUse">
<stop stop-color="#1155CB"/>
<stop offset="1" stop-color="#1DB57C"/>
</linearGradient>
<linearGradient id="paint6_linear_578_229" x1="186.271" y1="52.1204" x2="198.947" y2="-22.5162" gradientUnits="userSpaceOnUse">
<stop stop-color="#1155CB"/>
<stop offset="1" stop-color="#1DB57C"/>
</linearGradient>
</defs>
</svg>
